<svg xmlns="http://www.w3.org/2000/svg">
    
    <symbol id="pause" viewBox="0 0 24 24" fill="none" stroke-width="1.5" stroke="currentColor" class="size-6">
        <path stroke-linecap="round" stroke-linejoin="round" d="M15.75 5.25v13.5m-7.5-13.5v13.5" />
    </symbol>
    
    <symbol id="play" viewBox="0 0 24 24" stroke-width="1.5" fill="none" stroke="currentColor" class="size-6">
        <path stroke-linecap="round" stroke-linejoin="round" d="M5.25 5.653c0-.856.917-1.398 1.667-.986l11.54 6.347a1.125 1.125 0 0 1 0 1.972l-11.54 6.347a1.125 1.125 0 0 1-1.667-.986V5.653Z"/>
    </symbol>
    
    <symbol id="stop" viewBox="0 0 24 24" stroke-width="1.5" fill="none" stroke="currentColor" class="size-6">
        <path stroke-linecap="round" stroke-linejoin="round" d="M18.75 5.25v13.5a2.25 2.25 0 0 1-2.25 2.25H7.5a2.25 2.25 0 0 1-2.25-2.25V5.25A2.25 2.25 0 0 1 7.5 3h9a2.25 2.25 0 0 1 2.25 2.25Z" />
    </symbol>
</svg>