<?xml version="1.0" encoding="UTF-8"?>
<svg id="Layer_1" xmlns="http://www.w3.org/2000/svg" version="1.1" xmlns:xlink="http://www.w3.org/1999/xlink" viewBox="0 0 462.6 80">
  <!-- Generator: Adobe Illustrator 29.5.1, SVG Export Plug-In . SVG Version: 2.1.0 Build 141)  -->
  <defs>
    <style>
      .st0 {
        fill: #fff;
      }

      .st1 {
        clip-path: url(#clippath-1);
      }

      .st2 {
        isolation: isolate;
      }

      .st3 {
        clip-path: url(#clippath-3);
      }

      .st4 {
        clip-path: url(#clippath-2);
      }

      .st5 {
        opacity: .7;
      }

      .st6 {
        clip-path: url(#clippath);
      }
    </style>
    <clipPath id="clippath">
      <path class="st0" d="M120,66.1c-14.4,0-26.1-11.7-26.1-26.1s11.7-26.1,26.1-26.1,26.1,11.7,26.1,26.1-11.7,26.1-26.1,26.1ZM120,20.3c-10.9,0-19.7,8.8-19.7,19.7s8.8,19.7,19.7,19.7,19.7-8.8,19.7-19.7-8.8-19.7-19.7-19.7Z"/>
    </clipPath>
    <clipPath id="clippath-1">
      <path class="st0" d="M33.5,65c-3.1,0-5.8-1.8-7-4.6L9.4,22.3c-.2-.5-.7-.8-1.2-.8H3.2c-1.8,0-3.2-1.4-3.2-3.2s1.4-3.2,3.2-3.2h5c3,0,5.8,1.8,7.1,4.6l17.1,38.1c.3.7.9.8,1.2.8s.9,0,1.2-.8l17.1-38.1c1.2-2.8,4-4.6,7-4.6h34.6c1.8,0,3.2,1.4,3.2,3.2s-1.4,3.2-3.2,3.2h-34.6c-.5,0-1,.3-1.2.8l-17.1,38.1c-1.3,2.8-4,4.6-7,4.6ZM85.4,39.8c0-1.8-1.4-3.2-3.2-3.2h-15.8c-1.8,0-3.2,1.4-3.2,3.2s1.4,3.2,3.2,3.2h15.8c1.8,0,3.2-1.4,3.2-3.2ZM96.6,61.2c0-1.8-1.4-3.2-3.2-3.2h-44.5c-1.8,0-3.2,1.4-3.2,3.2s1.4,3.2,3.2,3.2h44.5c1.8,0,3.2-1.4,3.2-3.2Z"/>
    </clipPath>
    <clipPath id="clippath-2">
      <path class="st0" d="M120,66.1c-14.4,0-26.1-11.7-26.1-26.1s11.7-26.1,26.1-26.1,26.1,11.7,26.1,26.1-11.7,26.1-26.1,26.1ZM120,20.3c-10.9,0-19.7,8.8-19.7,19.7s8.8,19.7,19.7,19.7,19.7-8.8,19.7-19.7-8.8-19.7-19.7-19.7Z"/>
    </clipPath>
    <clipPath id="clippath-3">
      <path class="st0" d="M33.5,65c-3.1,0-5.8-1.8-7-4.6L9.4,22.3c-.2-.5-.7-.8-1.2-.8H3.2c-1.8,0-3.2-1.4-3.2-3.2s1.4-3.2,3.2-3.2h5c3,0,5.8,1.8,7.1,4.6l17.1,38.1c.3.7.9.8,1.2.8s.9,0,1.2-.8l17.1-38.1c1.2-2.8,4-4.6,7-4.6h34.6c1.8,0,3.2,1.4,3.2,3.2s-1.4,3.2-3.2,3.2h-34.6c-.5,0-1,.3-1.2.8l-17.1,38.1c-1.3,2.8-4,4.6-7,4.6ZM85.4,39.8c0-1.8-1.4-3.2-3.2-3.2h-15.8c-1.8,0-3.2,1.4-3.2,3.2s1.4,3.2,3.2,3.2h15.8c1.8,0,3.2-1.4,3.2-3.2ZM96.6,61.2c0-1.8-1.4-3.2-3.2-3.2h-44.5c-1.8,0-3.2,1.4-3.2,3.2s1.4,3.2,3.2,3.2h44.5c1.8,0,3.2-1.4,3.2-3.2Z"/>
    </clipPath>
  </defs>
  <g>
    <path class="st0" d="M33.5,65c-3.1,0-5.8-1.8-7-4.6L9.4,22.3c-.2-.5-.7-.8-1.2-.8H3.2c-1.8,0-3.2-1.4-3.2-3.2s1.4-3.2,3.2-3.2h5c3,0,5.8,1.8,7.1,4.6l17.1,38.1c.3.7.9.8,1.2.8s.9,0,1.2-.8l17.1-38.1c1.2-2.8,4-4.6,7-4.6h34.6c1.8,0,3.2,1.4,3.2,3.2s-1.4,3.2-3.2,3.2h-34.6c-.5,0-1,.3-1.2.8l-17.1,38.1c-1.3,2.8-4,4.6-7,4.6ZM85.4,39.8c0-1.8-1.4-3.2-3.2-3.2h-15.8c-1.8,0-3.2,1.4-3.2,3.2s1.4,3.2,3.2,3.2h15.8c1.8,0,3.2-1.4,3.2-3.2ZM96.6,61.2c0-1.8-1.4-3.2-3.2-3.2h-44.5c-1.8,0-3.2,1.4-3.2,3.2s1.4,3.2,3.2,3.2h44.5c1.8,0,3.2-1.4,3.2-3.2Z"/>
    <path class="st0" d="M120,66.1c-14.4,0-26.1-11.7-26.1-26.1s11.7-26.1,26.1-26.1,26.1,11.7,26.1,26.1-11.7,26.1-26.1,26.1ZM120,20.3c-10.9,0-19.7,8.8-19.7,19.7s8.8,19.7,19.7,19.7,19.7-8.8,19.7-19.7-8.8-19.7-19.7-19.7Z"/>
    <circle class="st0" cx="57.7" cy="39.7" r="3.2"/>
    <g class="st5">
      <g>
        <path class="st0" d="M120,66.1c-14.4,0-26.1-11.7-26.1-26.1s11.7-26.1,26.1-26.1,26.1,11.7,26.1,26.1-11.7,26.1-26.1,26.1ZM120,20.3c-10.9,0-19.7,8.8-19.7,19.7s8.8,19.7,19.7,19.7,19.7-8.8,19.7-19.7-8.8-19.7-19.7-19.7Z"/>
        <g class="st6">
          <path class="st0" d="M80.1,80c-22,0-40-17.9-40-40S58,0,80.1,0s40,17.9,40,40-17.9,40-40,40h0ZM80.1,9.8c-16.6,0-30.2,13.5-30.2,30.2s13.5,30.2,30.2,30.2,30.2-13.5,30.2-30.2-13.5-30.2-30.2-30.2Z"/>
        </g>
      </g>
    </g>
    <g>
      <path class="st0" d="M33.5,65c-3.1,0-5.8-1.8-7-4.6L9.4,22.3c-.2-.5-.7-.8-1.2-.8H3.2c-1.8,0-3.2-1.4-3.2-3.2s1.4-3.2,3.2-3.2h5c3,0,5.8,1.8,7.1,4.6l17.1,38.1c.3.7.9.8,1.2.8s.9,0,1.2-.8l17.1-38.1c1.2-2.8,4-4.6,7-4.6h34.6c1.8,0,3.2,1.4,3.2,3.2s-1.4,3.2-3.2,3.2h-34.6c-.5,0-1,.3-1.2.8l-17.1,38.1c-1.3,2.8-4,4.6-7,4.6ZM85.4,39.8c0-1.8-1.4-3.2-3.2-3.2h-15.8c-1.8,0-3.2,1.4-3.2,3.2s1.4,3.2,3.2,3.2h15.8c1.8,0,3.2-1.4,3.2-3.2ZM96.6,61.2c0-1.8-1.4-3.2-3.2-3.2h-44.5c-1.8,0-3.2,1.4-3.2,3.2s1.4,3.2,3.2,3.2h44.5c1.8,0,3.2-1.4,3.2-3.2Z"/>
      <g class="st1">
        <path class="st0" d="M83.6,80c-22,0-40-17.9-40-40S61.5,0,83.6,0s40,17.9,40,40-17.9,40-40,40h0ZM83.6,9.8c-16.6,0-30.2,13.5-30.2,30.2s13.5,30.2,30.2,30.2,30.2-13.5,30.2-30.2-13.5-30.2-30.2-30.2Z"/>
      </g>
    </g>
  </g>
  <g>
    <path class="st0" d="M33.5,65c-3.1,0-5.8-1.8-7-4.6L9.4,22.3c-.2-.5-.7-.8-1.2-.8H3.2c-1.8,0-3.2-1.4-3.2-3.2s1.4-3.2,3.2-3.2h5c3,0,5.8,1.8,7.1,4.6l17.1,38.1c.3.7.9.8,1.2.8s.9,0,1.2-.8l17.1-38.1c1.2-2.8,4-4.6,7-4.6h34.6c1.8,0,3.2,1.4,3.2,3.2s-1.4,3.2-3.2,3.2h-34.6c-.5,0-1,.3-1.2.8l-17.1,38.1c-1.3,2.8-4,4.6-7,4.6ZM85.4,39.8c0-1.8-1.4-3.2-3.2-3.2h-15.8c-1.8,0-3.2,1.4-3.2,3.2s1.4,3.2,3.2,3.2h15.8c1.8,0,3.2-1.4,3.2-3.2ZM96.6,61.2c0-1.8-1.4-3.2-3.2-3.2h-44.5c-1.8,0-3.2,1.4-3.2,3.2s1.4,3.2,3.2,3.2h44.5c1.8,0,3.2-1.4,3.2-3.2Z"/>
    <path class="st0" d="M120,66.1c-14.4,0-26.1-11.7-26.1-26.1s11.7-26.1,26.1-26.1,26.1,11.7,26.1,26.1-11.7,26.1-26.1,26.1ZM120,20.3c-10.9,0-19.7,8.8-19.7,19.7s8.8,19.7,19.7,19.7,19.7-8.8,19.7-19.7-8.8-19.7-19.7-19.7Z"/>
    <circle class="st0" cx="57.7" cy="39.7" r="3.2"/>
    <g class="st5">
      <g>
        <path class="st0" d="M120,66.1c-14.4,0-26.1-11.7-26.1-26.1s11.7-26.1,26.1-26.1,26.1,11.7,26.1,26.1-11.7,26.1-26.1,26.1ZM120,20.3c-10.9,0-19.7,8.8-19.7,19.7s8.8,19.7,19.7,19.7,19.7-8.8,19.7-19.7-8.8-19.7-19.7-19.7Z"/>
        <g class="st4">
          <path class="st0" d="M80.1,80c-22,0-40-17.9-40-40S58,0,80.1,0s40,17.9,40,40-17.9,40-40,40h0ZM80.1,9.8c-16.6,0-30.2,13.5-30.2,30.2s13.5,30.2,30.2,30.2,30.2-13.5,30.2-30.2-13.5-30.2-30.2-30.2Z"/>
        </g>
      </g>
    </g>
    <g>
      <path class="st0" d="M33.5,65c-3.1,0-5.8-1.8-7-4.6L9.4,22.3c-.2-.5-.7-.8-1.2-.8H3.2c-1.8,0-3.2-1.4-3.2-3.2s1.4-3.2,3.2-3.2h5c3,0,5.8,1.8,7.1,4.6l17.1,38.1c.3.7.9.8,1.2.8s.9,0,1.2-.8l17.1-38.1c1.2-2.8,4-4.6,7-4.6h34.6c1.8,0,3.2,1.4,3.2,3.2s-1.4,3.2-3.2,3.2h-34.6c-.5,0-1,.3-1.2.8l-17.1,38.1c-1.3,2.8-4,4.6-7,4.6ZM85.4,39.8c0-1.8-1.4-3.2-3.2-3.2h-15.8c-1.8,0-3.2,1.4-3.2,3.2s1.4,3.2,3.2,3.2h15.8c1.8,0,3.2-1.4,3.2-3.2ZM96.6,61.2c0-1.8-1.4-3.2-3.2-3.2h-44.5c-1.8,0-3.2,1.4-3.2,3.2s1.4,3.2,3.2,3.2h44.5c1.8,0,3.2-1.4,3.2-3.2Z"/>
      <g class="st3">
        <path class="st0" d="M83.6,80c-22,0-40-17.9-40-40S61.5,0,83.6,0s40,17.9,40,40-17.9,40-40,40h0ZM83.6,9.8c-16.6,0-30.2,13.5-30.2,30.2s13.5,30.2,30.2,30.2,30.2-13.5,30.2-30.2-13.5-30.2-30.2-30.2Z"/>
      </g>
    </g>
  </g>
  <g class="st2">
    <g class="st2">
      <path class="st0" d="M161.7,24.2h9c8.2,0,13.8,5.6,13.8,12.9h0c0,7.4-5.6,13-13.8,13h-9v-25.9ZM170.7,47.4c6.6,0,10.7-4.4,10.7-10.2h0c0-5.8-4.2-10.3-10.7-10.3h-6.1v20.5h6.1Z"/>
      <path class="st0" d="M190.7,24.2h18.7v2.7h-15.8v8.9h14.2v2.7h-14.2v9.1h16v2.7h-18.9v-25.9Z"/>
      <path class="st0" d="M213.8,46.3l1.8-2.1c2.7,2.4,5.3,3.7,8.9,3.7s5.8-1.9,5.8-4.4h0c0-2.5-1.3-3.9-6.7-5-6-1.3-8.7-3.2-8.7-7.5h0c0-4.1,3.6-7.2,8.5-7.2s6.5,1.1,9.1,3.2l-1.7,2.3c-2.4-2-4.8-2.8-7.5-2.8s-5.5,1.9-5.5,4.2h0c0,2.5,1.3,3.9,7,5.1,5.8,1.3,8.4,3.4,8.4,7.3h0c0,4.5-3.7,7.4-8.9,7.4s-7.5-1.4-10.6-4.1Z"/>
      <path class="st0" d="M239.5,24.2h2.9v25.9h-2.9v-25.9Z"/>
      <path class="st0" d="M248.9,37.2h0c0-7.2,5.2-13.5,13-13.5s7.1,1.3,9.7,3.4l-1.9,2.2c-2-1.7-4.2-3-7.9-3-5.7,0-9.9,4.9-9.9,10.6h0c0,6.3,4,10.9,10.3,10.9s5.7-1.1,7.5-2.6v-6.4h-7.9v-2.6h10.7v10.3c-2.4,2.1-6,4-10.4,4-8.2,0-13.2-5.9-13.2-13.3Z"/>
      <path class="st0" d="M279.1,24.2h2.7l16.3,20.8v-20.8h2.9v25.9h-2.3l-16.7-21.3v21.3h-2.9v-25.9Z"/>
    </g>
    <g class="st2">
      <path class="st0" d="M317.7,46.3l1.8-2.1c2.7,2.4,5.3,3.7,8.9,3.7s5.8-1.9,5.8-4.4h0c0-2.5-1.3-3.9-6.7-5-6-1.3-8.7-3.2-8.7-7.5h0c0-4.1,3.6-7.2,8.5-7.2s6.5,1.1,9.1,3.2l-1.7,2.3c-2.4-2-4.8-2.8-7.5-2.8s-5.5,1.9-5.5,4.2h0c0,2.5,1.3,3.9,7,5.1,5.8,1.3,8.4,3.4,8.4,7.3h0c0,4.5-3.7,7.4-8.9,7.4s-7.5-1.4-10.6-4.1Z"/>
    </g>
    <g class="st2">
      <path class="st0" d="M349.4,26.9h-8.7v-2.7h20.4v2.7h-8.7v23.2h-3v-23.2Z"/>
      <path class="st0" d="M366.2,39.2v-15.1h2.9v14.9c0,5.6,3,8.7,7.9,8.7s7.8-2.9,7.8-8.6v-15.1h2.9v14.9c0,7.6-4.3,11.5-10.8,11.5s-10.8-3.9-10.8-11.3Z"/>
      <path class="st0" d="M394.7,24.2h9c8.2,0,13.8,5.6,13.8,12.9h0c0,7.4-5.6,13-13.8,13h-9v-25.9ZM403.7,47.4c6.6,0,10.7-4.4,10.7-10.2h0c0-5.8-4.2-10.3-10.7-10.3h-6.1v20.5h6.1Z"/>
      <path class="st0" d="M423.9,24.2h2.9v25.9h-2.9v-25.9Z"/>
      <path class="st0" d="M433.3,37.2h0c0-7.2,5.4-13.5,13.3-13.5s13.2,6.2,13.2,13.3h0c0,7.2-5.4,13.5-13.3,13.5s-13.2-6.2-13.2-13.3ZM456.7,37.2h0c0-6-4.3-10.8-10.2-10.8s-10.2,4.7-10.2,10.6h0c0,6,4.3,10.8,10.2,10.8s10.2-4.7,10.2-10.6Z"/>
    </g>
  </g>
  <g>
    <path class="st0" d="M158.1,63.5c0,.6.5,1.1,1.1,1.1h89.3c.6,0,1.1-.5,1.1-1.1s-.5-1.1-1.1-1.1h-89.3c-.6,0-1.1.5-1.1,1.1Z"/>
    <circle class="st0" cx="252.9" cy="63.5" r="1.1"/>
  </g>
  <path class="st0" d="M146.6,8h0c0-2.8,2.2-5.1,5-5.1s5,2.3,5,5h0c0,2.8-2.2,5.1-5,5.1s-5-2.3-5-5ZM156.1,8h0c0-2.5-1.9-4.5-4.5-4.5s-4.5,2.1-4.5,4.5h0c0,2.5,1.9,4.5,4.5,4.5s4.5-2.1,4.5-4.5ZM149.7,5.4h2.3c1.1,0,2,.6,2,1.6s-.5,1.4-1.2,1.6l1.4,1.9h-1.2l-1.2-1.8h-1.1v1.8h-1v-5.1ZM151.9,7.9c.7,0,1-.3,1-.8s-.4-.8-1-.8h-1.2v1.7h1.2Z"/>
</svg>