<svg xmlns="http://www.w3.org/2000/svg">
  <symbol id="vdsLogo" viewBox="0 0 459.8 80">
    <defs>
      <style>
        .st0 { fill: url(#linear-gradient2); }
        .st1 { fill: currentColor; }
        .st2 { fill: url(#linear-gradient1); }
        .st3 { fill: #fff; }
        .st4 { fill: url(#radial-gradient); }
        .st5 { fill: url(#radial-gradient1); }
        .st6 { clip-path: url(#clippath-1); }
        .st7 { isolation: isolate; }
        .st8 { clip-path: url(#clippath-3); }
        .st9 { fill: url(#linear-gradient7); }
        .st10 { fill: url(#linear-gradient4); }
        .st11 { fill: url(#linear-gradient5); }
        .st12 { fill: url(#linear-gradient3); }
        .st13 { fill: url(#linear-gradient6); }
        .st14 { clip-path: url(#clippath-2); }
        .st15 { opacity: .7; }
        .st16 { fill: #ee3f4f; }
        .st17 { fill: url(#linear-gradient); }
        .st18 { clip-path: url(#clippath); }
      </style>
      <linearGradient id="linear-gradient" x1="0" y1="1038.1" x2="96.6" y2="1038.1" gradientTransform="translate(0 -998)" gradientUnits="userSpaceOnUse">
        <stop offset="0" stop-color="#293b8d"/>
        <stop offset="0" stop-color="#293c8d"/>
        <stop offset=".2" stop-color="#2c63aa"/>
        <stop offset=".3" stop-color="#2f83c1"/>
        <stop offset=".5" stop-color="#329cd3"/>
        <stop offset=".6" stop-color="#33aee0"/>
        <stop offset=".8" stop-color="#34b9e8"/>
        <stop offset="1" stop-color="#35bdeb"/>
      </linearGradient>
      <linearGradient id="linear-gradient1" x1="145.9" y1="1038" x2="94" y2="1038" gradientTransform="translate(0 -998)" gradientUnits="userSpaceOnUse">
        <stop offset="0" stop-color="#ee3f4f"/>
        <stop offset="1" stop-color="#f28622"/>
      </linearGradient>
      <radialGradient id="radial-gradient" cx="54.8" cy="1034.8" fx="54.8" fy="1034.8" r="8.7" gradientTransform="translate(0 -998)" gradientUnits="userSpaceOnUse">
        <stop offset="0" stop-color="#f28622"/>
        <stop offset=".8" stop-color="#ee424e"/>
      </radialGradient>
      <clipPath id="clippath">
        <path class="st3" d="M120,66.1c-14.4,0-26.1-11.7-26.1-26.1s11.7-26.1,26.1-26.1,26.1,11.7,26.1,26.1-11.7,26.1-26.1,26.1ZM120,20.3c-10.9,0-19.7,8.8-19.7,19.7s8.8,19.7,19.7,19.7,19.7-8.8,19.7-19.7-8.8-19.7-19.7-19.7Z"/>
      </clipPath>
      <linearGradient id="linear-gradient2" x1="116" y1="1038" x2="96.5" y2="1038" gradientTransform="translate(0 -998)" gradientUnits="userSpaceOnUse">
        <stop offset="0" stop-color="#be1e2d"/>
        <stop offset="1" stop-color="#f05a28"/>
      </linearGradient>
      <clipPath id="clippath-1">
        <path class="st3" d="M33.5,65c-3.1,0-5.8-1.8-7-4.6L9.4,22.3c-.2-.5-.7-.8-1.2-.8H3.2c-1.8,0-3.2-1.4-3.2-3.2s1.4-3.2,3.2-3.2h5c3,0,5.8,1.8,7.1,4.6l17.1,38.1c.3.7.9.8,1.2.8s.9,0,1.2-.8l17.1-38.1c1.2-2.8,4-4.6,7-4.6h34.6c1.8,0,3.2,1.4,3.2,3.2s-1.4,3.2-3.2,3.2h-34.6c-.5,0-1,.3-1.2.8l-17.1,38.1c-1.3,2.8-4,4.6-7,4.6ZM85.4,39.8c0-1.8-1.4-3.2-3.2-3.2h-15.8c-1.8,0-3.2,1.4-3.2,3.2s1.4,3.2,3.2,3.2h15.8c1.8,0,3.2-1.4,3.2-3.2ZM96.6,61.2c0-1.8-1.4-3.2-3.2-3.2h-44.5c-1.8,0-3.2,1.4-3.2,3.2s1.4,3.2,3.2,3.2h44.5c1.8,0,3.2-1.4,3.2-3.2Z"/>
      </clipPath>
      <linearGradient id="linear-gradient3" x1="38.6" y1="1038" x2="94.7" y2="1038" gradientTransform="translate(0 -998)" gradientUnits="userSpaceOnUse">
        <stop offset="0" stop-color="#293b8d"/>
        <stop offset="0" stop-color="#293c8d"/>
        <stop offset=".2" stop-color="#2c63aa"/>
        <stop offset=".3" stop-color="#2f83c1"/>
        <stop offset=".5" stop-color="#329cd3"/>
        <stop offset=".6" stop-color="#33aee0"/>
        <stop offset=".8" stop-color="#34b9e8"/>
        <stop offset="1" stop-color="#35bdeb"/>
      </linearGradient>
      <linearGradient id="linear-gradient4" x1="0" y1="1038.1" x2="96.6" y2="1038.1" gradientTransform="translate(0 -998)" gradientUnits="userSpaceOnUse">
        <stop offset="0" stop-color="#293b8d"/>
        <stop offset="0" stop-color="#293c8d"/>
        <stop offset=".2" stop-color="#2c63aa"/>
        <stop offset=".3" stop-color="#2f83c1"/>
        <stop offset=".5" stop-color="#329cd3"/>
        <stop offset=".6" stop-color="#33aee0"/>
        <stop offset=".8" stop-color="#34b9e8"/>
        <stop offset="1" stop-color="#35bdeb"/>
      </linearGradient>
      <linearGradient id="linear-gradient5" x1="145.9" y1="1038" x2="94" y2="1038" gradientTransform="translate(0 -998)" gradientUnits="userSpaceOnUse">
        <stop offset="0" stop-color="#ee3f4f"/>
        <stop offset="1" stop-color="#f28622"/>
      </linearGradient>
      <radialGradient id="radial-gradient1" cx="54.8" cy="1034.8" fx="54.8" fy="1034.8" r="8.7" gradientTransform="translate(0 -998)" gradientUnits="userSpaceOnUse">
        <stop offset="0" stop-color="#f28622"/>
        <stop offset=".8" stop-color="#ee424e"/>
      </radialGradient>
      <clipPath id="clippath-2">
        <path class="st3" d="M120,66.1c-14.4,0-26.1-11.7-26.1-26.1s11.7-26.1,26.1-26.1,26.1,11.7,26.1,26.1-11.7,26.1-26.1,26.1ZM120,20.3c-10.9,0-19.7,8.8-19.7,19.7s8.8,19.7,19.7,19.7,19.7-8.8,19.7-19.7-8.8-19.7-19.7-19.7Z"/>
      </clipPath>
      <linearGradient id="linear-gradient6" x1="116" y1="1038" x2="96.5" y2="1038" gradientTransform="translate(0 -998)" gradientUnits="userSpaceOnUse">
        <stop offset="0" stop-color="#be1e2d"/>
        <stop offset="1" stop-color="#f05a28"/>
      </linearGradient>
      <clipPath id="clippath-3">
        <path class="st3" d="M33.5,65c-3.1,0-5.8-1.8-7-4.6L9.4,22.3c-.2-.5-.7-.8-1.2-.8H3.2c-1.8,0-3.2-1.4-3.2-3.2s1.4-3.2,3.2-3.2h5c3,0,5.8,1.8,7.1,4.6l17.1,38.1c.3.7.9.8,1.2.8s.9,0,1.2-.8l17.1-38.1c1.2-2.8,4-4.6,7-4.6h34.6c1.8,0,3.2,1.4,3.2,3.2s-1.4,3.2-3.2,3.2h-34.6c-.5,0-1,.3-1.2.8l-17.1,38.1c-1.3,2.8-4,4.6-7,4.6ZM85.4,39.8c0-1.8-1.4-3.2-3.2-3.2h-15.8c-1.8,0-3.2,1.4-3.2,3.2s1.4,3.2,3.2,3.2h15.8c1.8,0,3.2-1.4,3.2-3.2ZM96.6,61.2c0-1.8-1.4-3.2-3.2-3.2h-44.5c-1.8,0-3.2,1.4-3.2,3.2s1.4,3.2,3.2,3.2h44.5c1.8,0,3.2-1.4,3.2-3.2Z"/>
      </clipPath>
      <linearGradient id="linear-gradient7" x1="38.6" y1="1038" x2="94.7" y2="1038" gradientTransform="translate(0 -998)" gradientUnits="userSpaceOnUse">
        <stop offset="0" stop-color="#293b8d"/>
        <stop offset="0" stop-color="#293c8d"/>
        <stop offset=".2" stop-color="#2c63aa"/>
        <stop offset=".3" stop-color="#2f83c1"/>
        <stop offset=".5" stop-color="#329cd3"/>
        <stop offset=".6" stop-color="#33aee0"/>
        <stop offset=".8" stop-color="#34b9e8"/>
        <stop offset="1" stop-color="#35bdeb"/>
      </linearGradient>
    </defs>
    <g>
      <path class="st17" d="M33.5,65c-3.1,0-5.8-1.8-7-4.6L9.4,22.3c-.2-.5-.7-.8-1.2-.8H3.2c-1.8,0-3.2-1.4-3.2-3.2s1.4-3.2,3.2-3.2h5c3,0,5.8,1.8,7.1,4.6l17.1,38.1c.3.7.9.8,1.2.8s.9,0,1.2-.8l17.1-38.1c1.2-2.8,4-4.6,7-4.6h34.6c1.8,0,3.2,1.4,3.2,3.2s-1.4,3.2-3.2,3.2h-34.6c-.5,0-1,.3-1.2.8l-17.1,38.1c-1.3,2.8-4,4.6-7,4.6ZM85.4,39.8c0-1.8-1.4-3.2-3.2-3.2h-15.8c-1.8,0-3.2,1.4-3.2,3.2s1.4,3.2,3.2,3.2h15.8c1.8,0,3.2-1.4,3.2-3.2ZM96.6,61.2c0-1.8-1.4-3.2-3.2-3.2h-44.5c-1.8,0-3.2,1.4-3.2,3.2s1.4,3.2,3.2,3.2h44.5c1.8,0,3.2-1.4,3.2-3.2Z"/>
      <path class="st2" d="M120,66.1c-14.4,0-26.1-11.7-26.1-26.1s11.7-26.1,26.1-26.1,26.1,11.7,26.1,26.1-11.7,26.1-26.1,26.1ZM120,20.3c-10.9,0-19.7,8.8-19.7,19.7s8.8,19.7,19.7,19.7,19.7-8.8,19.7-19.7-8.8-19.7-19.7-19.7Z"/>
      <circle class="st4" cx="57.7" cy="39.7" r="3.2"/>
      <g class="st15">
        <g class="st18">
          <path class="st0" d="M80.1,80c-22,0-40-17.9-40-40S58,0,80.1,0s40,17.9,40,40-17.9,40-40,40h0ZM80.1,9.8c-16.6,0-30.2,13.5-30.2,30.2s13.5,30.2,30.2,30.2,30.2-13.5,30.2-30.2-13.5-30.2-30.2-30.2Z"/>
        </g>
      </g>
      <g class="st6">
        <path class="st12" d="M83.6,80c-22,0-40-17.9-40-40S61.5,0,83.6,0s40,17.9,40,40-17.9,40-40,40h0ZM83.6,9.8c-16.6,0-30.2,13.5-30.2,30.2s13.5,30.2,30.2,30.2,30.2-13.5,30.2-30.2-13.5-30.2-30.2-30.2Z"/>
      </g>
    </g>
    <g>
      <path class="st10" d="M33.5,65c-3.1,0-5.8-1.8-7-4.6L9.4,22.3c-.2-.5-.7-.8-1.2-.8H3.2c-1.8,0-3.2-1.4-3.2-3.2s1.4-3.2,3.2-3.2h5c3,0,5.8,1.8,7.1,4.6l17.1,38.1c.3.7.9.8,1.2.8s.9,0,1.2-.8l17.1-38.1c1.2-2.8,4-4.6,7-4.6h34.6c1.8,0,3.2,1.4,3.2,3.2s-1.4,3.2-3.2,3.2h-34.6c-.5,0-1,.3-1.2.8l-17.1,38.1c-1.3,2.8-4,4.6-7,4.6ZM85.4,39.8c0-1.8-1.4-3.2-3.2-3.2h-15.8c-1.8,0-3.2,1.4-3.2,3.2s1.4,3.2,3.2,3.2h15.8c1.8,0,3.2-1.4,3.2-3.2ZM96.6,61.2c0-1.8-1.4-3.2-3.2-3.2h-44.5c-1.8,0-3.2,1.4-3.2,3.2s1.4,3.2,3.2,3.2h44.5c1.8,0,3.2-1.4,3.2-3.2Z"/>
      <path class="st11" d="M120,66.1c-14.4,0-26.1-11.7-26.1-26.1s11.7-26.1,26.1-26.1,26.1,11.7,26.1,26.1-11.7,26.1-26.1,26.1ZM120,20.3c-10.9,0-19.7,8.8-19.7,19.7s8.8,19.7,19.7,19.7,19.7-8.8,19.7-19.7-8.8-19.7-19.7-19.7Z"/>
      <circle class="st5" cx="57.7" cy="39.7" r="3.2"/>
      <g class="st15">
        <g class="st14">
          <path class="st13" d="M80.1,80c-22,0-40-17.9-40-40S58,0,80.1,0s40,17.9,40,40-17.9,40-40,40h0ZM80.1,9.8c-16.6,0-30.2,13.5-30.2,30.2s13.5,30.2,30.2,30.2,30.2-13.5,30.2-30.2-13.5-30.2-30.2-30.2Z"/>
        </g>
      </g>
      <g class="st8">
        <path class="st9" d="M83.6,80c-22,0-40-17.9-40-40S61.5,0,83.6,0s40,17.9,40,40-17.9,40-40,40h0ZM83.6,9.8c-16.6,0-30.2,13.5-30.2,30.2s13.5,30.2,30.2,30.2,30.2-13.5,30.2-30.2-13.5-30.2-30.2-30.2Z"/>
      </g>
    </g>
    <g class="st7">
      <g class="st7">
        <path class="st1" d="M161.7,24.2h9c8.1,0,13.8,5.6,13.8,12.9h0c0,7.4-5.6,13-13.8,13h-9v-25.9ZM170.7,47.4c6.6,0,10.7-4.5,10.7-10.2h0c0-5.8-4.2-10.3-10.7-10.3h-6.1v20.5h6.1Z"/>
        <path class="st1" d="M190.7,24.2h18.8v2.7h-15.8v8.9h14.1v2.7h-14.1v9.1h16v2.7h-18.9v-25.9h0Z"/>
        <path class="st1" d="M213.8,46.3l1.8-2.2c2.7,2.5,5.3,3.7,8.9,3.7s5.8-1.8,5.8-4.4h0c0-2.5-1.3-3.8-6.7-5-6-1.3-8.7-3.2-8.7-7.5h0c0-4.1,3.6-7.1,8.5-7.1s6.5,1.1,9.1,3.2l-1.7,2.3c-2.4-2-4.8-2.8-7.5-2.8s-5.5,1.9-5.5,4.2h0c0,2.5,1.3,3.9,7,5.1,5.8,1.3,8.4,3.4,8.4,7.3h0c0,4.5-3.7,7.4-8.9,7.4s-7.5-1.4-10.6-4.2h0Z"/>
        <path class="st1" d="M239.5,24.2h2.9v25.9h-2.9s0-25.9,0-25.9Z"/>
        <path class="st1" d="M248.9,37.2h0c0-7.2,5.2-13.5,13-13.5s7.1,1.3,9.7,3.5l-1.9,2.2c-2-1.7-4.2-3-7.9-3-5.7,0-9.9,4.9-9.9,10.6h0c0,6.3,4,10.8,10.3,10.8s5.7-1.2,7.5-2.6v-6.5h-7.9v-2.6h10.7v10.3c-2.4,2.2-6,4-10.4,4-8.1,0-13.2-5.9-13.2-13.3h0Z"/>
        <path class="st1" d="M279.1,24.2h2.7l16.3,20.8v-20.8h2.9v25.9h-2.3l-16.8-21.3v21.3h-2.9s0-25.9,0-25.9Z"/>
      </g>
      <g class="st7">
        <path class="st1" d="M317.7,46.3l1.8-2.2c2.7,2.5,5.3,3.7,8.9,3.7s5.8-1.8,5.8-4.4h0c0-2.5-1.3-3.8-6.7-5-6-1.3-8.7-3.2-8.7-7.5h0c0-4.1,3.6-7.1,8.5-7.1s6.5,1.1,9.1,3.2l-1.7,2.3c-2.4-2-4.8-2.8-7.5-2.8s-5.5,1.9-5.5,4.2h0c0,2.5,1.3,3.9,7,5.1,5.8,1.3,8.5,3.4,8.5,7.3h0c0,4.5-3.7,7.4-8.9,7.4s-7.5-1.4-10.6-4.2h0Z"/>
      </g>
      <g class="st7">
        <path class="st1" d="M349.4,26.9h-8.7v-2.7h20.4v2.7h-8.7v23.2h-3v-23.2h0Z"/>
        <path class="st1" d="M366.2,39.2v-15.1h2.9v14.9c0,5.6,3,8.7,7.9,8.7s7.8-2.9,7.8-8.6v-15.1h2.9v14.9c0,7.6-4.3,11.5-10.8,11.5s-10.8-3.9-10.8-11.3h0Z"/>
        <path class="st1" d="M394.7,24.2h9c8.1,0,13.8,5.6,13.8,12.9h0c0,7.4-5.6,13-13.8,13h-9v-25.9ZM403.7,47.4c6.6,0,10.7-4.5,10.7-10.2h0c0-5.8-4.2-10.3-10.7-10.3h-6.1v20.5h6.1Z"/>
        <path class="st1" d="M424,24.2h2.9v25.9h-2.9s0-25.9,0-25.9Z"/>
        <path class="st1" d="M433.3,37.2h0c0-7.2,5.4-13.5,13.3-13.5s13.2,6.2,13.2,13.3h0c0,7.2-5.4,13.5-13.3,13.5s-13.2-6.2-13.2-13.3ZM456.7,37.2h0c0-6-4.3-10.8-10.2-10.8s-10.1,4.7-10.1,10.6h0c0,6,4.3,10.8,10.2,10.8s10.1-4.7,10.1-10.6h0Z"/>
      </g>
    </g>
    <g>
      <path class="st1" d="M158.1,63.5c0,.6.5,1.1,1.1,1.1h89.3c.6,0,1.1-.5,1.1-1.1s-.5-1.1-1.1-1.1h-89.3c-.6,0-1.1.5-1.1,1.1Z"/>
      <circle class="st1" cx="252.9" cy="63.5" r="1.1"/>
    </g>
    <path class="st16" d="M146.6,8.1h0c0-2.8,2.2-5.1,5-5.1s5,2.3,5,5h0c0,2.8-2.2,5.1-5,5.1s-5-2.3-5-5ZM156.1,8h0c0-2.5-1.9-4.5-4.5-4.5s-4.5,2.1-4.5,4.5h0c0,2.5,1.9,4.5,4.5,4.5s4.5-2.1,4.5-4.5ZM149.7,5.3h2.3c1.1,0,2,.6,2,1.6s-.5,1.4-1.2,1.6l1.4,1.9h-1.2l-1.2-1.8h-1.1v1.8h-1v-5.1h0ZM151.9,7.9c.7,0,1-.3,1-.8s-.4-.8-1-.8h-1.2v1.7s1.2,0,1.2,0Z"/>
  </symbol>
</svg>